<svg width="24" height="24" viewBox="0 0 24 24" fill="none" xmlns="http://www.w3.org/2000/svg">
<path d="M4.72799 16.137C3.18299 14.591 2.40999 13.819 2.12299 12.816C1.83499 11.813 2.08099 10.748 2.57299 8.619L2.85599 7.391C3.26899 5.599 3.47599 4.703 4.08899 4.089C4.70299 3.476 5.59899 3.269 7.39099 2.856L8.61899 2.572C10.749 2.081 11.813 1.835 12.816 2.122C13.819 2.41 14.591 3.183 16.136 4.728L17.966 6.558C20.657 9.248 22 10.592 22 12.262C22 13.933 20.656 15.277 17.967 17.966C15.277 20.656 13.933 22 12.262 22C10.592 22 9.24699 20.656 6.55799 17.967L4.72799 16.137Z" stroke="#3F3D3D" stroke-width="1.5"/>
<path d="M15.39 15.39C15.975 14.803 16.054 13.933 15.566 13.444C15.078 12.956 14.207 13.035 13.621 13.621C13.036 14.207 12.165 14.286 11.677 13.798C11.189 13.31 11.268 12.439 11.854 11.854M11.854 11.854L11.5 11.5M11.854 11.854C12.185 11.522 12.607 11.354 13 11.357M15.743 15.743L15.389 15.389C14.989 15.79 14.454 15.954 14 15.86" stroke="#3F3D3D" stroke-width="1.5" stroke-linecap="round"/>
<path d="M10.0212 10.2932C10.8023 9.51216 10.8023 8.24583 10.0212 7.46478C9.24016 6.68373 7.97383 6.68374 7.19278 7.46478C6.41173 8.24583 6.41173 9.51216 7.19278 10.2932C7.97383 11.0743 9.24016 11.0743 10.0212 10.2932Z" stroke="#3F3D3D" stroke-width="1.5"/>
</svg>
