<svg width="374" height="389" viewBox="0 0 374 389" fill="none" xmlns="http://www.w3.org/2000/svg">
<g filter="url(#filter0_d_131_3)">
<mask id="mask0_131_3" style="mask-type:alpha" maskUnits="userSpaceOnUse" x="16" y="18" width="330" height="345">
<path d="M346 194.804C346 276.542 245.738 362.304 164 362.304C82.2619 362.304 16 296.042 16 214.304C16.0001 70.8042 117 88.3362 189 44.3042C261 0.272093 289.903 14.274 319 65.8364C339.493 102.151 346 161.026 346 194.804Z" fill="white"/>
</mask>
<g mask="url(#mask0_131_3)">
<g filter="url(#filter1_d_131_3)">
<path d="M346 194.804C346 276.542 245.738 362.304 164 362.304C82.2619 362.304 16 296.042 16 214.304C16.0001 70.8042 117 88.3362 189 44.3042C261 0.272093 289.903 14.274 319 65.8364C339.493 102.151 346 161.026 346 194.804Z" fill="#EFC3C4"/>
</g>
</g>
</g>
<defs>
<filter id="filter0_d_131_3" x="0.200001" y="0.200001" width="373.6" height="387.904" filterUnits="userSpaceOnUse" color-interpolation-filters="sRGB">
<feFlood flood-opacity="0" result="BackgroundImageFix"/>
<feColorMatrix in="SourceAlpha" type="matrix" values="0 0 0 0 0 0 0 0 0 0 0 0 0 0 0 0 0 0 127 0" result="hardAlpha"/>
<feOffset dx="6" dy="4"/>
<feGaussianBlur stdDeviation="10.9"/>
<feComposite in2="hardAlpha" operator="out"/>
<feColorMatrix type="matrix" values="0 0 0 0 0 0 0 0 0 0 0 0 0 0 0 0 0 0 0.25 0"/>
<feBlend mode="normal" in2="BackgroundImageFix" result="effect1_dropShadow_131_3"/>
<feBlend mode="normal" in="SourceGraphic" in2="effect1_dropShadow_131_3" result="shape"/>
</filter>
<filter id="filter1_d_131_3" x="12" y="18" width="338" height="352.304" filterUnits="userSpaceOnUse" color-interpolation-filters="sRGB">
<feFlood flood-opacity="0" result="BackgroundImageFix"/>
<feColorMatrix in="SourceAlpha" type="matrix" values="0 0 0 0 0 0 0 0 0 0 0 0 0 0 0 0 0 0 127 0" result="hardAlpha"/>
<feOffset dy="4"/>
<feGaussianBlur stdDeviation="2"/>
<feComposite in2="hardAlpha" operator="out"/>
<feColorMatrix type="matrix" values="0 0 0 0 0 0 0 0 0 0 0 0 0 0 0 0 0 0 0.25 0"/>
<feBlend mode="normal" in2="BackgroundImageFix" result="effect1_dropShadow_131_3"/>
<feBlend mode="normal" in="SourceGraphic" in2="effect1_dropShadow_131_3" result="shape"/>
</filter>
</defs>
</svg>
